<svg xmlns="http://www.w3.org/2000/svg" width="512" height="512"><path data-original="#6E6E6E" fill="#6e6e6e" d="M502.001 287.737v-91.283l-55.76-39.527-24.24 37.072z"/><path data-original="#E4E4E4" fill="#e4e4e4" d="M10.645 251.772l-.644 160.007.107.219 46.893-80.999zM268.001 99.999l2.492-89.698-82.492 49.019-48.466 87.115 58.466 3.564z"/><path data-original="#A8A89E" fill="#a8a89e" d="M502.001 287.737l-80-93.738 24.24-37.072-29.24-77.158-146.508-69.468-2.492 89.698-70 50-58.466-3.564-128.89 105.337 46.356 79.227-46.893 80.999 43.893 90.001 87-19.247 59 19.247h55.695l108.305-45 87.092 43.132 50.908-87.149z"/><path data-original="#6E6E6E" fill="#6e6e6e" d="M255.696 501.999h194.305l1.092-1.868-87.092-43.132z"/><path d="M507.784 188.296l-53.504-37.927-27.921-74.124a10.004 10.004 0 00-5.046-5.498l-146-69.771a10.006 10.006 0 00-9.423.428l-82.998 49.319a10.002 10.002 0 00-3.665 3.797l-46.064 84.206L3.674 244.554a10 10 0 00-3.673 7.744v159.481c0 1.519.346 3.018 1.012 4.383l.106.218 43.894 90.002A10.002 10.002 0 0053.998 512c.716 0 86.497-18.895 86.497-18.895l56.404 18.4a9.99 9.99 0 003.102.493h250c3.554 0 6.841-1.887 8.634-4.955l52-89.018a10 10 0 001.365-5.044V196.454a9.997 9.997 0 00-4.216-8.158zM195.461 66.519l64.531-38.346-1.849 66.579-63.071 45.05-38.418-2.343 38.807-70.94zM20.001 287.565l25.43 43.461-25.43 43.924v-87.385zm285.826 204.434l57.811-24.021 48.503 24.021H305.827zm186.174-81.724l-44.835 76.752-78.727-38.989a10 10 0 00-8.275-.273L253.702 492h-52.111l-57.488-18.754a10.017 10.017 0 00-5.262-.257l-79.306 17.545L21.43 412.4s44.648-77.18 44.817-77.589a10 10 0 00-.614-8.862l-42.038-71.846 119.238-97.449 54.56 3.327c2.316.141 4.511-.571 6.421-1.844l70-50a10 10 0 004.184-7.859l2.08-74.857 128.983 61.637 25.921 68.815-21.351 32.654a10 10 0 00.763 11.964l77.607 90.933v118.851zm0-149.66l-57.532-67.411 14.46-22.114 43.072 30.533v58.992z" data-original="#000000" class="active-path" data-old_color="#000000" fill="#5d5b5b"/><path d="M231.797 345.99c-.012-.058-.029-.113-.042-.171-.934-4.182-4.738-7.464-8.999-7.785l-90.18-5.528-8.299-50.547 68.699-21.413a10 10 0 006.933-10.898l-6-44c-1.698-12.453-21.571-10.167-19.816 2.702l4.857 35.619-20.182 6.29-4.942-26.119c-2.325-12.291-22.068-9.052-19.651 3.718l5.372 28.393-28.068 8.748H80.001c-12.778 0-12.951 20 0 20h24.508l9.095 55.395-36.523 72.085c-5.743 11.336 11.998 20.573 17.841 9.04l25.044-49.429 10.24 49.918c2.534 12.353 22.202 8.703 19.592-4.018l-13.377-65.212 69.784 4.273-31.124 61.429c-5.656 11.164 12.017 20.536 17.841 9.039l25.044-49.429 10.24 49.918c2.581 12.58 22.194 8.667 19.592-4.018l-16.001-78zm131.314-167.71c-4.79 2.74-6.46 8.86-3.72 13.65l44.27 77.58-24.89 18.66-20.77-5.04V251c0-12.82-20-12.95-20 0v33.35l-28.24 11.82-12.82-25.64c-5.69-11.39-23.69-2.66-17.88 8.94l17 34c2.35 4.71 7.95 6.79 12.8 4.75l29.14-12.19v38.74l-29.11 40.38a9.99 9.99 0 00-1.86 6.58l3 41c.92 12.66 20.89 11.47 19.94-1.46l-2.73-37.37 18.53-25.71 11.04 25.75c.35.83.82 1.6 1.38 2.31 0 0 23.89 29.86 24 30 7.92 9.9 23.77-2.31 15.62-12.5l-23.15-28.94-16.66-38.861v-42.24s20.62 5 20.64 5.01c2.69.65 6.01.04 8.36-1.72l26.65-19.99 37.93 66.46c3.147 5.498 9.027 5.724 13.353 3.226 4.329-2.501 7.101-7.731 4.016-13.137L376.761 182.01c-2.74-4.788-9.038-6.368-13.65-3.73z" data-original="#000000" class="active-path" data-old_color="#000000" fill="#5d5b5b"/><circle cx="348.001" cy="152" r="10" data-original="#000000" class="active-path" data-old_color="#000000" fill="#5d5b5b"/></svg>