<svg height="512" width="512" xmlns="http://www.w3.org/2000/svg"><path d="M489.278 17.927l-219.422 288.77-69.471-52.788L344.124 64.742c10.136-13.339 22.267-24.993 35.828-34.418 29.293-20.359 63.623-29.199 95.903-24.695l8.86 1.236c5.249.732 7.769 6.843 4.563 11.062z" fill="#bfbfbf"/><path d="M364.565 88.103c10.136-13.339 22.267-24.993 35.828-34.418 24.92-17.32 53.485-26.297 81.333-25.819l7.552-9.939c3.206-4.219.686-10.33-4.562-11.062l-8.86-1.236c-32.28-4.505-66.61 4.336-95.903 24.695-13.56 9.425-25.692 21.079-35.828 34.418L200.385 253.91l24.213 18.398z" fill="#e2e2e2"/><path d="M272.787 316.688a6.181 6.181 0 00-1.182-8.661l-72.97-55.447a6.181 6.181 0 00-8.661 1.182l-51.476 67.744c-1.086 1.43-2.739 2.336-4.532 2.427-26.727 1.37-52.693 14.049-70.151 37.025-31.443 41.381-23.387 100.417 17.994 131.86s100.416 23.387 131.859-17.994c20.712-27.258 24.272-62.172 12.47-91.818a6.16 6.16 0 01.82-6.006zm-95.559 130.447c-16.125 21.221-46.508 25.367-67.729 9.242s-25.367-46.507-9.242-67.728 46.507-25.367 67.728-9.242 25.367 46.508 9.243 67.728z" fill="#0055a3"/><path d="M22.666 13.045l215.441 291.752 70.189-51.83L167.164 61.846c-9.952-13.477-21.922-25.296-35.352-34.906C102.8 6.181 68.595-3.129 36.256.932L27.38 2.047c-5.258.66-7.862 6.735-4.714 10.998z" fill="#e2e2e2"/><path d="M443.384 361.88c-17.142-23.214-42.932-36.247-69.637-37.984-1.792-.117-3.432-1.045-4.498-2.489l-50.542-68.444a6.182 6.182 0 00-8.644-1.301l-73.724 54.441a6.182 6.182 0 00-1.301 8.644l44.997 60.935a6.16 6.16 0 01.738 6.017c-12.207 29.482-9.126 64.442 11.21 91.981 30.873 41.808 89.792 50.673 131.6 19.8s50.674-89.792 19.801-131.6zm-43.555 92.003c-22.629 20.047-57.76 14.763-73.489-11.055-12.057-19.79-8.146-45.785 9.2-61.152 22.629-20.047 57.759-14.762 73.488 11.055 12.057 19.79 8.146 45.785-9.199 61.152z" fill="#0473ce"/><path d="M443.384 361.88c-17.142-23.214-42.932-36.247-69.637-37.984-1.792-.117-3.432-1.045-4.498-2.489l-50.542-68.444a6.182 6.182 0 00-8.644-1.301l-26.088 19.265a6.17 6.17 0 015.53 2.478l50.542 68.444c1.066 1.445 2.707 2.372 4.498 2.489 26.705 1.736 52.495 14.771 69.637 37.984 27.742 37.569 23.379 88.943-8.124 121.379a94.435 94.435 0 0017.526-10.22c41.808-30.874 50.673-89.793 19.8-131.601z" fill="#0067c5"/><path d="M36.776 32.154c28.608-.655 57.97 8.743 83.354 26.907 13.43 9.61 25.401 21.43 35.352 34.906l129.903 175.917 22.909-16.917-141.13-191.121c-9.952-13.477-21.922-25.297-35.352-34.906C102.8 6.181 68.595-3.129 36.256.932L27.38 2.047c-5.258.66-7.862 6.736-4.714 10.998z" fill="#cecece"/><circle cx="245.956" cy="241.717" fill="#5a5a5a" r="15.452"/></svg>